<svg width="141" height="35" viewBox="0 0 141 35" fill="none" xmlns="http://www.w3.org/2000/svg">
<mask id="mask0_35_7" style="mask-type:alpha" maskUnits="userSpaceOnUse" x="0" y="0" width="141" height="35">
<path d="M0 0H141V35H0V0Z" fill="#C4C4C4"/>
</mask>
<g mask="url(#mask0_35_7)">
<path d="M141.196 31.7564C141.257 31.7573 141.318 31.7462 141.375 31.724C141.432 31.7018 141.484 31.6688 141.528 31.6269C141.571 31.5851 141.605 31.5354 141.629 31.4806C141.652 31.4258 141.663 31.3671 141.662 31.308V28.3371C141.663 28.2779 141.652 28.2193 141.629 28.1645C141.605 28.1097 141.571 28.0599 141.528 28.0181C141.484 27.9763 141.432 27.9433 141.375 27.9211C141.318 27.8988 141.257 27.8878 141.196 27.8886H137.057C136.066 27.8886 133.559 27.8326 132.16 27.1599C131.76 26.992 131.402 26.7435 131.111 26.4312C130.893 26.1383 130.79 25.781 130.819 25.4222V3.44849C130.82 3.38937 130.808 3.33068 130.785 3.2759C130.762 3.22111 130.728 3.17135 130.684 3.12954C130.641 3.08773 130.589 3.05473 130.532 3.03249C130.475 3.01025 130.414 2.99921 130.353 3.00004H121.375C121.314 2.99921 121.253 3.01025 121.196 3.03249C121.139 3.05473 121.087 3.08773 121.043 3.12954C121 3.17135 120.966 3.22111 120.942 3.2759C120.919 3.33068 120.908 3.38937 120.909 3.44849V24.6935C120.888 25.7125 121.15 26.7185 121.667 27.6083C122.302 28.5099 123.165 29.2426 124.173 29.7384C127.554 31.5322 133.559 31.7004 135.891 31.7004H141.196" fill="#EB212E"/>
<path d="M20.7553 31.5878C20.8168 31.5886 20.8778 31.5776 20.9348 31.5553C20.9918 31.5331 21.0436 31.5001 21.087 31.4583C21.1305 31.4165 21.1648 31.3667 21.188 31.3119C21.2111 31.2571 21.2226 31.1985 21.2217 31.1393V6.92341H32.1231C32.1846 6.92424 32.2457 6.9132 32.3026 6.89096C32.3596 6.86872 32.4114 6.83572 32.4548 6.79391C32.4983 6.7521 32.5326 6.70234 32.5558 6.64755C32.5789 6.59277 32.5904 6.53408 32.5895 6.47496V3.50403C32.5904 3.44491 32.5789 3.38622 32.5558 3.33144C32.5326 3.27666 32.4983 3.22689 32.4548 3.18508C32.4114 3.14327 32.3596 3.11027 32.3026 3.08803C32.2457 3.06579 32.1846 3.05476 32.1231 3.05559H0.468157C0.176674 3.11164 0.00178484 3.27981 0.00178484 3.50403V6.47496C-0.00395011 6.53523 0.00417524 6.59598 0.0255847 6.65289C0.0469942 6.7098 0.0811634 6.76149 0.125669 6.80428C0.170175 6.84708 0.223928 6.87994 0.283116 6.90052C0.342304 6.92111 0.405477 6.92892 0.468157 6.92341H11.3696V31.1954C11.3687 31.2545 11.3802 31.3132 11.4033 31.368C11.4265 31.4228 11.4608 31.4725 11.5043 31.5143C11.5478 31.5561 11.5995 31.5891 11.6565 31.6114C11.7135 31.6336 11.7745 31.6447 11.836 31.6438H20.7553" fill="#EB212E"/>
<path d="M50.4865 17.4062C50.4876 17.7619 50.3868 18.111 50.195 18.4152C49.9196 18.7442 49.5571 18.9959 49.1457 19.1439C47.7466 19.8166 45.1815 19.8726 44.2488 19.8726H36.3788V16.5654C36.3777 16.2097 36.4785 15.8606 36.6702 15.5564C36.9457 15.2273 37.3081 14.9756 37.7196 14.8277C39.1187 14.155 41.6837 14.0989 42.6165 14.0989H44.1905C45.1815 14.0989 47.6883 14.155 49.0874 14.8277C49.4874 14.9956 49.8452 15.2441 50.1367 15.5564C50.3543 15.8493 50.4575 16.2065 50.4282 16.5654V17.4062H50.4865ZM60.222 31.5882C60.2835 31.589 60.3445 31.578 60.4015 31.5558C60.4585 31.5335 60.5103 31.5005 60.5537 31.4587C60.5972 31.4169 60.6315 31.3671 60.6547 31.3123C60.6778 31.2576 60.6893 31.1989 60.6884 31.1398V28.2249C60.6893 28.1658 60.6778 28.1071 60.6547 28.0523C60.6315 27.9975 60.5972 27.9477 60.5537 27.9059C60.5103 27.8641 60.4585 27.8311 60.4015 27.8089C60.3445 27.7866 60.2835 27.7756 60.222 27.7764H42.6165C41.6254 27.7764 39.1187 27.7204 37.7196 27.0477C37.3196 26.8798 36.9618 26.6313 36.6702 26.319C36.4527 26.0261 36.3495 25.6688 36.3788 25.31V23.7404H45.3564C47.6883 23.7404 53.8677 23.6283 57.2489 22.0027C58.2106 21.5879 59.0662 20.9757 59.7557 20.209C60.9216 18.6955 61.0382 15.7245 59.7557 14.0989C59.0947 13.3033 58.2312 12.6855 57.2489 12.3052C53.8677 10.6796 47.6883 10.5674 45.3564 10.5674H41.5088C39.177 10.5674 32.9976 10.7356 29.6164 12.3612C28.6305 12.8143 27.7711 13.4869 27.1096 14.3232C26.5741 15.0815 26.3083 15.9861 26.3518 16.9017V25.3661C26.2997 26.2826 26.5664 27.1898 27.1096 27.9446C27.7737 28.7785 28.6324 29.4506 29.6164 29.9065C32.9976 31.5321 39.177 31.7003 41.5088 31.7003H60.222V31.5882Z" fill="#EB212E"/>
<path d="M105.81 25.7025C105.811 26.0582 105.71 26.4073 105.519 26.7115C105.243 27.0405 104.881 27.2922 104.469 27.4402C103.07 28.1129 100.505 28.169 99.5724 28.169H97.9984C97.0074 28.169 94.5006 28.1129 93.1015 27.4402C92.7015 27.2723 92.3437 27.0238 92.0522 26.7115C91.8346 26.4186 91.7314 26.0614 91.7607 25.7025V24.7496C91.7596 24.3939 91.8605 24.0448 92.0522 23.7406C92.3276 23.4116 92.6901 23.1599 93.1015 23.0119C94.5006 22.3392 97.0657 22.2832 97.9984 22.2832H105.868V25.7025H105.81ZM115.079 14.3793C114.415 13.5454 113.557 12.8734 112.573 12.4174C109.191 10.7918 103.012 10.6236 100.68 10.6236H85.3481C85.2866 10.6228 85.2256 10.6338 85.1686 10.6561C85.1116 10.6783 85.0599 10.7113 85.0164 10.7531C84.9729 10.7949 84.9386 10.8447 84.9155 10.8995C84.8923 10.9543 84.8809 11.013 84.8817 11.0721V14.043C84.8809 14.1021 84.8923 14.1608 84.9155 14.2156C84.9386 14.2704 84.9729 14.3202 85.0164 14.362C85.0599 14.4038 85.1116 14.4368 85.1686 14.459C85.2256 14.4813 85.2866 14.4923 85.3481 14.4915H99.5724C100.563 14.4915 103.07 14.5475 104.469 15.2202C104.869 15.3881 105.227 15.6366 105.519 15.9489C105.736 16.2418 105.839 16.5991 105.81 16.9579V18.3593H96.8325C94.5006 18.3593 88.3212 18.4714 84.94 20.097C83.9783 20.5118 83.1227 21.1241 82.4333 21.8908C81.209 23.5164 81.1507 26.5434 82.4333 28.169C83.0942 28.9646 83.9577 29.5825 84.94 29.9627C88.3212 31.5883 94.5006 31.7004 96.8325 31.7004H100.68C103.012 31.7004 109.191 31.5323 112.573 29.9067C113.558 29.4536 114.418 28.781 115.079 27.9447C115.615 27.1864 115.881 26.2818 115.837 25.3662V17.0139C115.88 16.0808 115.615 15.1585 115.079 14.3793Z" fill="#EB212E"/>
<path d="M136.124 4.68176H136.357L136.824 5.35443H137.173L136.707 4.68176C136.999 4.62571 137.173 4.45754 137.173 4.23332C137.179 4.16576 137.169 4.09789 137.144 4.03436C137.12 3.97083 137.081 3.91314 137.032 3.86523C136.982 3.81732 136.922 3.78033 136.856 3.75678C136.79 3.73324 136.719 3.7237 136.649 3.72882H135.833V5.35443H136.124V4.68176ZM136.124 4.40149V3.95304H136.474C136.649 3.95304 136.824 3.95304 136.824 4.17726C136.824 4.40149 136.707 4.40149 136.474 4.40149H136.124Z" fill="#EB212E"/>
<path d="M136.416 5.74673C136.076 5.7438 135.752 5.61293 135.512 5.38229C135.272 5.15165 135.136 4.83967 135.133 4.51351C135.133 4.18644 135.268 3.87276 135.509 3.64149C135.749 3.41022 136.075 3.28029 136.416 3.28029C136.756 3.28029 137.082 3.41022 137.322 3.64149C137.563 3.87276 137.698 4.18644 137.698 4.51351C137.695 4.83967 137.559 5.15165 137.319 5.38229C137.079 5.61293 136.755 5.7438 136.416 5.74673ZM136.416 3.00001C136.104 3.00001 135.8 3.08878 135.541 3.25508C135.282 3.42139 135.08 3.65776 134.961 3.93432C134.842 4.21087 134.811 4.51519 134.872 4.80878C134.933 5.10237 135.082 5.37205 135.303 5.58371C135.523 5.79538 135.803 5.93952 136.108 5.99792C136.414 6.05632 136.73 6.02635 137.018 5.9118C137.306 5.79724 137.551 5.60326 137.724 5.35436C137.897 5.10547 137.99 4.81285 137.99 4.51351C137.99 4.31453 137.95 4.11735 137.871 3.93336C137.793 3.74936 137.677 3.58219 137.53 3.44149C137.384 3.30078 137.21 3.18933 137.019 3.11356C136.828 3.03779 136.623 2.9992 136.416 3.00001Z" fill="#EB212E"/>
<path d="M64.8855 31.1959C64.8846 31.255 64.8961 31.3137 64.9192 31.3685C64.9424 31.4233 64.9767 31.473 65.0202 31.5148C65.0636 31.5566 65.1154 31.5896 65.1724 31.6119C65.2293 31.6341 65.2904 31.6452 65.3519 31.6443H74.3295C74.391 31.6452 74.452 31.6341 74.509 31.6119C74.566 31.5896 74.6177 31.5566 74.6612 31.5148C74.7047 31.473 74.739 31.4233 74.7622 31.3685C74.7853 31.3137 74.7968 31.255 74.7959 31.1959V14.4914H80.2758C80.3372 14.4922 80.3983 14.4812 80.4553 14.4589C80.5122 14.4367 80.564 14.4037 80.6075 14.3619C80.6509 14.3201 80.6853 14.2703 80.7084 14.2155C80.7315 14.1608 80.743 14.1021 80.7421 14.0429V11.072C80.743 11.0129 80.7315 10.9542 80.7084 10.8994C80.6853 10.8446 80.6509 10.7949 80.6075 10.7531C80.564 10.7113 80.5122 10.6783 80.4553 10.656C80.3983 10.6338 80.3372 10.6227 80.2758 10.6236H74.7959V9.27824C74.7865 8.92152 74.888 8.57021 75.0874 8.26925C75.3628 7.94023 75.7253 7.68852 76.1367 7.54053C77.5358 6.86786 80.2758 6.81181 81.2085 6.81181H85.1727C85.2342 6.81264 85.2952 6.8016 85.3522 6.77936C85.4091 6.75712 85.4609 6.72412 85.5044 6.68231C85.5479 6.6405 85.5822 6.59074 85.6053 6.53595C85.6284 6.48117 85.6399 6.42248 85.639 6.36336V3.44849C85.6399 3.38937 85.6284 3.33068 85.6053 3.2759C85.5822 3.22111 85.5479 3.17135 85.5044 3.12954C85.4609 3.08773 85.4091 3.05473 85.3522 3.03249C85.2952 3.01025 85.2342 2.99921 85.1727 3.00004H80.1009C77.769 3.00004 71.5896 3.16821 68.2084 4.96198C67.2109 5.47359 66.3523 6.20319 65.7016 7.09208C65.1238 8.04033 64.8595 9.13513 64.9438 10.2312V31.1959" fill="#EB212E"/>
</g>
</svg>
